<svg width="16" height="17" viewBox="0 0 16 17" fill="none" xmlns="http://www.w3.org/2000/svg">
<path d="M9.99999 15.8334H8.66666V14.5H9.99999V15.8334ZM12.6667 14.5H11.3333V15.8334H12.6667V14.5ZM9.99999 11.8334H8.66666V13.1667H9.99999V11.8334ZM4.66666 14.5H3.33332V15.8334H4.66666V14.5ZM4.66666 11.8334H3.33332V13.1667H4.66666V11.8334ZM12.6667 11.8334H11.3333V13.1667H12.6667V11.8334ZM9.99999 9.16669H8.66666V10.5H9.99999V9.16669ZM12.6667 9.16669H11.3333V10.5H12.6667V9.16669ZM14 6.50002C14.3536 6.50002 14.6928 6.6405 14.9428 6.89054C15.1928 7.14059 15.3333 7.47973 15.3333 7.83335V15.8334H14V7.83335H7.33332V15.8334H5.99999V10.5H1.99999V15.8334H0.666656V10.5C0.666656 10.1464 0.807132 9.80726 1.05718 9.55721C1.30723 9.30716 1.64637 9.16669 1.99999 9.16669H5.99999V7.83335C5.99999 7.47973 6.14047 7.14059 6.39051 6.89054C6.64056 6.6405 6.9797 6.50002 7.33332 6.50002V5.16669C7.33332 4.81307 7.4738 4.47393 7.72385 4.22388C7.9739 3.97383 8.31303 3.83335 8.66666 3.83335H9.99999V1.16669H11.3333V3.83335H12.6667C13.0203 3.83335 13.3594 3.97383 13.6095 4.22388C13.8595 4.47393 14 4.81307 14 5.16669V6.50002ZM12.6667 6.50002V5.16669H8.66666V6.50002H12.6667Z" fill="#41D7BE"/>
</svg>
