<svg width="24" height="24" viewBox="0 0 24 24" fill="none" xmlns="http://www.w3.org/2000/svg">
<path fill-rule="evenodd" clip-rule="evenodd" d="M4 4H20C21.1 4 22 4.9 22 6V18C22 19.1 21.1 20 20 20H4C2.9 20 2 19.1 2 18L2.01 6C2.01 4.9 2.9 4 4 4ZM12 13L20 8V6L12 11L4 6V8L12 13Z" fill="black"/>
<mask id="mask0_11_1840" style="mask-type:luminance" maskUnits="userSpaceOnUse" x="2" y="4" width="20" height="16">
<path fill-rule="evenodd" clip-rule="evenodd" d="M4 4H20C21.1 4 22 4.9 22 6V18C22 19.1 21.1 20 20 20H4C2.9 20 2 19.1 2 18L2.01 6C2.01 4.9 2.9 4 4 4ZM12 13L20 8V6L12 11L4 6V8L12 13Z" fill="white"/>
</mask>
<g mask="url(#mask0_11_1840)">
<rect width="24" height="24" fill="#42B7C3"/>
</g>
</svg>
