<svg width="24" height="24" viewBox="0 0 24 24" fill="none" xmlns="http://www.w3.org/2000/svg">
<path fill-rule="evenodd" clip-rule="evenodd" d="M16 1H8C6.34 1 5 2.34 5 4V20C5 21.66 6.34 23 8 23H16C17.66 23 19 21.66 19 20V4C19 2.34 17.66 1 16 1ZM14 21H10V20H14V21ZM6.75 18H17.25V4H6.75V18Z" fill="black"/>
<mask id="mask0_11_1978" style="mask-type:luminance" maskUnits="userSpaceOnUse" x="5" y="1" width="14" height="22">
<path fill-rule="evenodd" clip-rule="evenodd" d="M16 1H8C6.34 1 5 2.34 5 4V20C5 21.66 6.34 23 8 23H16C17.66 23 19 21.66 19 20V4C19 2.34 17.66 1 16 1ZM14 21H10V20H14V21ZM6.75 18H17.25V4H6.75V18Z" fill="white"/>
</mask>
<g mask="url(#mask0_11_1978)">
<rect width="24" height="24" fill="#CC1D15"/>
</g>
</svg>
